<?xml version="1.0" encoding="UTF-8" standalone="no" ?>
<!DOCTYPE svg PUBLIC "-//W3C//DTD SVG 1.1//EN" "http://www.w3.org/Graphics/SVG/1.1/DTD/svg11.dtd">
<svg xmlns="http://www.w3.org/2000/svg" xmlns:xlink="http://www.w3.org/1999/xlink" version="1.1" width="1280" height="1024" viewBox="0 0 1280 1024" xml:space="preserve">
<desc>Created with Fabric.js 5.3.0</desc>
<defs>
</defs>
<g transform="matrix(1 0 0 1 640 512)" id="background-logo"  >
<rect style="stroke: none; stroke-width: 0; stroke-dasharray: none; stroke-linecap: butt; stroke-dashoffset: 0; stroke-linejoin: miter; stroke-miterlimit: 4; fill: rgb(255,255,255); fill-opacity: 0; fill-rule: nonzero; opacity: 1;"  paint-order="stroke"  x="-640" y="-512" rx="0" ry="0" width="1280" height="1024" />
</g>
<g transform="matrix(3.7798351161202843 0 0 3.7798351161202843 640.1186348090444 512.664354930648)" id="logo-logo"  >
<g style=""  paint-order="stroke"   >
		<g transform="matrix(1.0260847656699996 0 0 1.0260847656699996 0 0)"  >
<g style=""  paint-order="stroke"   >
		<g transform="matrix(1 0 0 1 0 0)"  >
<path style="stroke: none; stroke-width: 1; stroke-dasharray: none; stroke-linecap: butt; stroke-dashoffset: 0; stroke-linejoin: miter; stroke-miterlimit: 4; fill: rgb(209,26,44); fill-rule: nonzero; opacity: 1;"  paint-order="stroke"  transform=" translate(-422.2101803432589, -306.1000000000001)" d="M 509.3 280.5 C 508.90000000000003 312.6 492.40000000000003 324.3 492.40000000000003 324.3 C 506.90000000000003 269.40000000000003 468.20000000000005 243.20000000000002 468.20000000000005 243.20000000000002 C 476.50000000000006 272.6 461.6 286.40000000000003 461.6 286.40000000000003 C 462.3 208.70000000000005 405 181.10000000000002 405 181.10000000000002 C 423.7 217.70000000000002 405 235.00000000000003 405 235.00000000000003 C 404.4 221.90000000000003 391.2 209.80000000000004 391.2 209.80000000000004 C 389.8 256.80000000000007 360.4 283.70000000000005 360.4 283.70000000000005 C 367.29999999999995 260.6 348.59999999999997 249.10000000000005 348.59999999999997 249.10000000000005 C 349.99999999999994 252.50000000000006 350.49999999999994 256.20000000000005 350.49999999999994 259.80000000000007 C 350.3999999999999 264.9000000000001 349.29999999999995 270.00000000000006 348.09999999999997 273.9000000000001 C 348.09999999999997 273.9000000000001 348.09999999999997 274.0000000000001 348.09999999999997 274.0000000000001 C 346.99999999999994 277.7000000000001 345.4 281.3000000000001 343.4 284.7000000000001 C 342.29999999999995 286.6000000000001 341.2 288.5000000000001 340.2 290.5000000000001 C 322 324.7000000000001 313.8 359.3000000000001 344.59999999999997 383.8000000000001 C 369.4 403.60000000000014 391.2 431.10000000000014 391.2 431.10000000000014 L 391.2 337.5000000000001 C 391.2 328.9000000000001 394.59999999999997 321.10000000000014 400 315.3000000000001 C 409.6 305.10000000000014 415.4 292.0000000000001 415.4 278.0000000000001 L 415.4 257.60000000000014 L 431.59999999999997 257.60000000000014 L 431.59999999999997 277.8000000000001 C 431.59999999999997 291.8000000000001 437.2 305.10000000000014 446.9 315.2000000000001 C 446.9 315.2000000000001 447 315.3000000000001 447 315.3000000000001 C 452.4 321.10000000000014 455.8 328.90000000000015 455.8 337.40000000000015 L 455.8 345.60000000000014 L 455.8 431 C 556.7 365 509.3 280.5 509.3 280.5 z M 431.6 253.1 L 415.40000000000003 253.1 L 415.40000000000003 248 C 415.40000000000003 246.3 416.8 244.9 418.6 244.9 L 428.5 244.9 C 430.2 244.9 431.7 246.3 431.7 248 L 431.6 253.1 L 431.6 253.1 z" stroke-linecap="round" />
</g>
		<g transform="matrix(1 0 0 1 -15.1601803432589 26.54999999999984)"  >
<path style="stroke: none; stroke-width: 1; stroke-dasharray: none; stroke-linecap: butt; stroke-dashoffset: 0; stroke-linejoin: miter; stroke-miterlimit: 4; fill: rgb(209,26,44); fill-rule: nonzero; opacity: 1;"  paint-order="stroke"  transform=" translate(-407.05, -332.65)" d="M 398.3 335.9 L 398.3 335.9 L 398.3 337.4 L 398.3 351.9 L 402.90000000000003 351.9 L 407.3 351.9 L 407.3 337.4 L 407.3 337.4 C 407.3 336.9 407.3 336.4 407.3 335.9 C 407.3 335.29999999999995 407.3 334.79999999999995 407.40000000000003 334.2 C 407.50000000000006 326.2 410.70000000000005 318.9 415.8 313.4 C 415.7 313.4 415.5 313.5 415.40000000000003 313.5 C 405.9 316.8 398.9 325.5 398.3 335.9 z" stroke-linecap="round" />
</g>
</g>
</g>
</g>
</g>
</svg>